<svg width="32" height="32" viewBox="0 0 32 32" fill="none" xmlns="http://www.w3.org/2000/svg">
<rect width="32" height="32" rx="16" fill="#EDB230"/>
<path d="M26.6665 13.7146H25.638L22.9922 7.76218C22.8725 7.49288 22.6772 7.26407 22.4301 7.10348C22.183 6.9429 21.8946 6.85743 21.5999 6.85742H10.3999C10.1051 6.85743 9.81674 6.9429 9.5696 7.10348C9.32247 7.26407 9.12721 7.49288 9.00748 7.76218L6.36177 13.7146H5.33319C5.13112 13.7146 4.93733 13.7948 4.79445 13.9377C4.65156 14.0806 4.57129 14.2744 4.57129 14.4765C4.57129 14.6785 4.65156 14.8723 4.79445 15.0152C4.93733 15.1581 5.13112 15.2384 5.33319 15.2384H6.0951V22.8574C6.0951 23.2616 6.25564 23.6491 6.54141 23.9349C6.82718 24.2207 7.21477 24.3812 7.61891 24.3812H9.90462C10.3088 24.3812 10.6963 24.2207 10.9821 23.9349C11.2679 23.6491 11.4284 23.2616 11.4284 22.8574V21.3336H20.5713V22.8574C20.5713 23.2616 20.7318 23.6491 21.0176 23.9349C21.3034 24.2207 21.691 24.3812 22.0951 24.3812H24.3808C24.785 24.3812 25.1725 24.2207 25.4583 23.9349C25.7441 23.6491 25.9046 23.2616 25.9046 22.8574V15.2384H26.6665C26.8686 15.2384 27.0624 15.1581 27.2053 15.0152C27.3482 14.8723 27.4284 14.6785 27.4284 14.4765C27.4284 14.2744 27.3482 14.0806 27.2053 13.9377C27.0624 13.7948 26.8686 13.7146 26.6665 13.7146ZM10.3999 8.38123H21.5999L23.9703 13.7146H8.02938L10.3999 8.38123ZM9.90462 22.8574H7.61891V21.3336H9.90462V22.8574ZM22.0951 22.8574V21.3336H24.3808V22.8574H22.0951ZM24.3808 19.8098H7.61891V15.2384H24.3808V19.8098ZM9.14272 17.5241C9.14272 17.322 9.22299 17.1282 9.36587 16.9853C9.50876 16.8425 9.70255 16.7622 9.90462 16.7622H11.4284C11.6305 16.7622 11.8243 16.8425 11.9672 16.9853C12.1101 17.1282 12.1903 17.322 12.1903 17.5241C12.1903 17.7262 12.1101 17.92 11.9672 18.0628C11.8243 18.2057 11.6305 18.286 11.4284 18.286H9.90462C9.70255 18.286 9.50876 18.2057 9.36587 18.0628C9.22299 17.92 9.14272 17.7262 9.14272 17.5241ZM19.8094 17.5241C19.8094 17.322 19.8897 17.1282 20.0325 16.9853C20.1754 16.8425 20.3692 16.7622 20.5713 16.7622H22.0951C22.2972 16.7622 22.491 16.8425 22.6338 16.9853C22.7767 17.1282 22.857 17.322 22.857 17.5241C22.857 17.7262 22.7767 17.92 22.6338 18.0628C22.491 18.2057 22.2972 18.286 22.0951 18.286H20.5713C20.3692 18.286 20.1754 18.2057 20.0325 18.0628C19.8897 17.92 19.8094 17.7262 19.8094 17.5241Z" fill="white"/>
</svg>
