<svg width="24" height="24" viewBox="0 0 24 24" fill="none" xmlns="http://www.w3.org/2000/svg">
<path fill-rule="evenodd" clip-rule="evenodd" d="M16.272 10.2725C16.272 11.3333 15.8505 12.3507 15.1004 13.1009C14.3503 13.851 13.3328 14.2725 12.272 14.2725C11.2111 14.2725 10.1937 13.851 9.44355 13.1009C8.6934 12.3507 8.27197 11.3333 8.27197 10.2725C8.27197 9.2116 8.6934 8.19418 9.44355 7.44403C10.1937 6.69389 11.2111 6.27246 12.272 6.27246C13.3328 6.27246 14.3503 6.69389 15.1004 7.44403C15.8505 8.19418 16.272 9.2116 16.272 10.2725ZM14.272 10.2725C14.272 10.8029 14.0613 11.3116 13.6862 11.6867C13.3111 12.0617 12.8024 12.2725 12.272 12.2725C11.7415 12.2725 11.2328 12.0617 10.8578 11.6867C10.4827 11.3116 10.272 10.8029 10.272 10.2725C10.272 9.74203 10.4827 9.23332 10.8578 8.85825C11.2328 8.48317 11.7415 8.27246 12.272 8.27246C12.8024 8.27246 13.3111 8.48317 13.6862 8.85825C14.0613 9.23332 14.272 9.74203 14.272 10.2725Z" fill="#858C94"/>
<path fill-rule="evenodd" clip-rule="evenodd" d="M5.794 16.5181C4.50484 15.2907 3.60861 13.7085 3.21864 11.9717C2.82867 10.2349 2.96248 8.42149 3.60315 6.76074C4.24381 5.1 5.36256 3.66652 6.81792 2.6416C8.27328 1.61668 9.99988 1.04634 11.7794 1.00271C13.5589 0.959071 15.3114 1.4441 16.8152 2.39646C18.3191 3.34882 19.5067 4.72574 20.228 6.35309C20.9493 7.98044 21.1718 9.78514 20.8675 11.539C20.5631 13.2928 19.7455 14.917 18.518 16.2061L12.312 22.7241L5.794 16.5181ZM17.07 14.8271L12.243 19.8971L7.173 15.0701C6.17037 14.1154 5.47334 12.8849 5.17005 11.5341C4.86676 10.1833 4.97084 8.77285 5.46912 7.48119C5.9674 6.18953 6.8375 5.07462 7.96941 4.27746C9.10131 3.4803 10.4442 3.03668 11.8282 3.00269C13.2122 2.96871 14.5752 3.3459 15.7449 4.08655C16.9146 4.8272 17.8383 5.89806 18.3994 7.16371C18.9605 8.42936 19.1336 9.83297 18.897 11.197C18.6604 12.5611 18.0246 13.8244 17.07 14.8271Z" fill="#858C94"/>
</svg>
